# xmcd
#
# Track frame offsets:
#	150
#	15621
#	28359
#	43125
#	57651
#
# Disc length: 1020 seconds
#
# Revision: 0
# Processed by: cddbd v1.5.2PL0 Copyright (c) Steve Scherf et al.
# Submitted via: dBpowerAMP V4.0
#
DISCID=4403fa05
DTITLE=Various Artist - Greatest Country Hits
DYEAR=1900
DGENRE=Country
TTITLE0=Tim McGraw - I Like It, I Love It
TTITLE1=LeAnn Rimes - Blue
TTITLE2=Jo Dee Messina - I'm Alright
TTITLE3=Sawyer Brown - Some Girls Do
TTITLE4=Wynonna - No One Else On Earth
EXTD=
EXTT0=
EXTT1=
EXTT2=
EXTT3=
EXTT4=
PLAYORDER=
